<?xml version="1.0" standalone="no"?>
<!DOCTYPE svg PUBLIC "-//W3C//DTD SVG 20010904//EN"
 "http://www.w3.org/TR/2001/REC-SVG-20010904/DTD/svg10.dtd">
<svg version="1.0" xmlns="http://www.w3.org/2000/svg"
 width="588.000000pt" height="588.000000pt" viewBox="0 0 588.000000 588.000000"
 preserveAspectRatio="xMidYMid meet">
<metadata>
Created by potrace 1.11, written by Peter Selinger 2001-2013
</metadata>
<g transform="translate(0.000000,588.000000) scale(0.100000,-0.100000)"
fill="#000000" stroke="none">
<path d="M3045 5280 c-16 -11 -33 -27 -37 -37 -3 -10 -7 -448 -7 -973 -1 -868
0 -958 15 -979 37 -52 12 -51 1016 -51 918 0 934 0 966 20 65 40 62 -2 62 992
-1 497 -5 923 -9 948 -6 30 -19 53 -40 72 l-31 28 -953 0 c-929 0 -953 -1
-982 -20z m1095 -652 c80 -34 123 -92 146 -196 18 -86 18 -258 -1 -345 -34
-163 -156 -243 -330 -216 -73 12 -126 45 -162 102 -48 76 -56 119 -56 287 0
168 8 211 56 287 63 99 219 136 347 81z"/>
<path d="M3948 4523 c-66 -41 -102 -198 -80 -353 20 -143 67 -197 164 -188 58
6 79 23 109 91 20 46 23 68 23 187 1 125 -1 139 -26 192 -30 64 -64 88 -125
88 -21 0 -50 -8 -65 -17z"/>
<path d="M1609 4647 c-50 -14 -122 -66 -141 -100 -9 -18 -7 -24 17 -43 60 -47
72 -50 103 -22 36 34 85 58 117 58 37 0 92 -25 104 -48 17 -31 13 -92 -9 -141
-20 -43 -140 -170 -283 -298 l-68 -61 3 -54 3 -53 268 -3 267 -2 0 60 0 60
-177 0 -178 1 45 41 c241 219 282 277 282 398 1 60 -3 77 -28 117 -41 66 -101
95 -202 100 -43 1 -97 -3 -123 -10z"/>
<path d="M3065 2991 c-11 -5 -29 -19 -40 -31 -20 -22 -20 -38 -23 -950 l-2
-929 -23 -3 c-21 -3 -22 -7 -22 -108 l0 -105 27 -3 26 -3 4 -172 c3 -161 5
-175 29 -222 49 -95 160 -136 315 -115 45 6 96 15 113 21 l31 11 0 99 0 99
-70 -3 c-100 -3 -104 2 -109 158 l-3 124 88 3 89 3 3 48 3 47 45 0 c24 0 44
-4 44 -9 0 -5 -10 -30 -22 -57 -20 -42 -23 -66 -23 -174 0 -114 2 -130 26
-181 68 -145 229 -217 426 -189 137 18 230 82 282 190 24 50 26 66 26 175 0
107 -3 127 -27 183 l-26 63 46 -3 47 -3 3 -47 c3 -46 4 -48 33 -48 l30 0 -3
-142 -3 -143 -27 -3 -28 -3 0 -105 0 -104 205 0 205 0 0 104 0 105 -27 3 -28
3 -3 95 c-5 153 9 190 72 190 65 0 71 -13 71 -157 l0 -128 -28 -3 -28 -3 3
-102 3 -102 203 -3 202 -2 0 105 0 105 -25 0 -25 0 0 128 c0 146 7 162 73 162
58 0 67 -23 67 -167 l0 -123 -25 0 -25 0 0 -105 0 -105 200 0 200 0 0 105 c0
104 0 105 -24 105 l-24 0 -4 178 c-4 201 -15 241 -81 299 -86 76 -256 50 -345
-52 -31 -35 -31 -35 -43 -12 -6 12 -24 36 -40 52 l-28 30 -3 930 c-3 869 -4
932 -21 956 -9 14 -29 31 -43 37 -30 14 -1886 16 -1919 3z m1082 -636 c155
-46 182 -252 44 -337 -32 -20 -33 -22 -15 -34 66 -45 85 -63 103 -100 42 -82
17 -206 -51 -257 -51 -38 -104 -51 -208 -52 -114 0 -182 20 -227 68 -90 95
-63 274 50 333 28 15 36 34 15 34 -16 1 -46 26 -76 64 -17 23 -22 42 -22 93 0
137 81 201 256 202 44 1 103 -6 131 -14z m-171 -1509 c17 -13 19 -27 19 -125
0 -127 -9 -145 -71 -145 -27 0 -42 7 -56 24 -17 21 -19 37 -16 128 3 89 6 106
22 118 25 18 77 18 102 0z"/>
<path d="M3953 2246 c-36 -16 -53 -43 -53 -81 0 -31 59 -92 98 -102 49 -12
142 52 142 98 0 28 -19 64 -41 78 -32 19 -110 23 -146 7z"/>
<path d="M3968 1910 c-81 -43 -108 -135 -55 -188 22 -21 38 -27 90 -30 100 -6
147 26 147 103 0 46 -23 80 -75 110 -50 30 -59 30 -107 5z"/>
<path d="M1751 2298 c-27 -35 -94 -121 -150 -193 -55 -71 -121 -156 -146 -187
-45 -56 -46 -58 -43 -120 l3 -63 193 -3 192 -2 0 -70 0 -70 65 0 65 0 0 70 0
70 34 0 c59 0 66 7 66 65 0 57 -8 65 -72 65 l-28 0 0 234 c0 129 -3 241 -6
250 -5 12 -21 16 -65 16 l-59 0 -49 -62z m49 -288 l0 -150 -121 0 c-66 0 -119
3 -117 8 4 10 231 292 235 292 2 0 3 -67 3 -150z"/>
<path d="M862 1366 c-241 -46 -362 -215 -362 -506 0 -313 129 -472 412 -510
137 -18 309 9 441 70 l27 13 0 169 0 168 -155 0 -155 0 0 -73 c0 -106 -36
-143 -116 -117 -50 17 -56 49 -52 302 3 207 4 218 25 239 15 16 34 22 64 22
62 0 79 -25 79 -114 l0 -69 155 0 155 0 0 164 0 163 -58 26 c-125 57 -322 79
-460 53z"/>
<path d="M2485 1077 c-64 -21 -100 -43 -133 -81 -84 -95 -57 -267 51 -330 23
-13 82 -32 131 -42 117 -23 149 -51 106 -94 -38 -38 -117 -19 -127 30 l-6 31
-101 -3 -101 -3 -3 -92 c-3 -107 -7 -103 108 -126 209 -42 368 -24 454 52 50
44 77 153 57 227 -26 95 -84 142 -211 170 -114 24 -138 33 -145 55 -9 29 12
49 52 49 45 0 73 -16 73 -40 0 -19 7 -20 100 -20 l100 0 0 89 0 90 -57 22
c-72 28 -283 37 -348 16z"/>
<path d="M1420 970 l0 -110 25 0 25 0 0 -127 c0 -170 12 -245 47 -301 38 -62
88 -86 173 -85 76 0 126 19 187 69 l43 35 0 -45 0 -46 175 0 175 0 0 104 0
105 -27 3 -28 3 -2 180 c-1 99 -3 213 -3 253 l0 72 -180 0 -180 0 0 -110 0
-110 36 0 36 0 -4 -125 c-3 -142 -12 -159 -74 -159 -26 0 -42 7 -55 23 -17 21
-19 43 -19 252 l0 229 -175 0 -175 0 0 -110z"/>
</g>
</svg>
